G04 PROTEUS GERBER X2 FILE*
%TF.GenerationSoftware,Labcenter,Proteus,8.9-SP2-Build28501*%
%TF.CreationDate,2023-03-09T16:47:13+00:00*%
%TF.FileFunction,AssemblyDrawing,Top*%
%TF.FilePolarity,Positive*%
%TF.Part,Single*%
%TF.SameCoordinates,{0f7d483c-582a-42f8-afd4-3f49b78b352a}*%
%FSLAX45Y45*%
%MOMM*%
G01*
%TA.AperFunction,Profile*%
%ADD16C,0.203200*%
%TA.AperFunction,Material*%
%ADD17C,0.203200*%
%ADD18C,0.508000*%
%ADD23C,0.533400*%
%ADD19C,0.152400*%
%ADD24C,0.558800*%
%ADD25C,0.182880*%
%TD.AperFunction*%
D16*
X-2750000Y-3000000D02*
X+1250000Y-3000000D01*
X+1250000Y+750000D01*
X-2750000Y+750000D01*
X-2750000Y-3000000D01*
D17*
X-2042160Y-1837500D02*
X-243840Y-1837500D01*
X-243840Y-948500D01*
X-2042160Y-948500D01*
X-2042160Y-1837500D01*
D18*
X-1905000Y-1774000D02*
X-1905000Y-1774000D01*
D23*
X-1569720Y-1232980D02*
X-1569720Y-1499680D01*
X-1516380Y-1553020D01*
X-1303020Y-1553020D01*
X-1249680Y-1499680D01*
X-1249680Y-1232980D01*
X-1036320Y-1339660D02*
X-929640Y-1232980D01*
X-929640Y-1553020D01*
D17*
X-2042160Y-571500D02*
X-243840Y-571500D01*
X-243840Y+317500D01*
X-2042160Y+317500D01*
X-2042160Y-571500D01*
D18*
X-1905000Y-508000D02*
X-1905000Y-508000D01*
D23*
X-1569720Y+33020D02*
X-1569720Y-233680D01*
X-1516380Y-287020D01*
X-1303020Y-287020D01*
X-1249680Y-233680D01*
X-1249680Y+33020D01*
X-1089660Y-20320D02*
X-1036320Y+33020D01*
X-876300Y+33020D01*
X-822960Y-20320D01*
X-822960Y-73660D01*
X-876300Y-127000D01*
X-1036320Y-127000D01*
X-1089660Y-180340D01*
X-1089660Y-287020D01*
X-822960Y-287020D01*
D17*
X+194500Y-1756160D02*
X+1083500Y-1756160D01*
X+1083500Y+42160D01*
X+194500Y+42160D01*
X+194500Y-1756160D01*
D18*
X+258000Y-95000D02*
X+258000Y-95000D01*
D23*
X+478980Y-1283720D02*
X+745680Y-1283720D01*
X+799020Y-1230380D01*
X+799020Y-1017020D01*
X+745680Y-963680D01*
X+478980Y-963680D01*
X+532320Y-803660D02*
X+478980Y-750320D01*
X+478980Y-590300D01*
X+532320Y-536960D01*
X+585660Y-536960D01*
X+639000Y-590300D01*
X+692340Y-536960D01*
X+745680Y-536960D01*
X+799020Y-590300D01*
X+799020Y-750320D01*
X+745680Y-803660D01*
X+639000Y-696980D02*
X+639000Y-590300D01*
D19*
X-701750Y-2549780D02*
X-701750Y-2260220D01*
X-2092250Y-2260220D01*
X-2092250Y-2549780D01*
X-701750Y-2549780D01*
X-701750Y-2260220D01*
X-2092250Y-2260220D01*
X-2092250Y-2549780D01*
X-701750Y-2549780D01*
D24*
X-1997000Y-2405000D02*
X-1997000Y-2405000D01*
D25*
X-1543304Y-2423288D02*
X-1543304Y-2441576D01*
X-1525016Y-2459864D01*
X-1451864Y-2459864D01*
X-1433576Y-2441576D01*
X-1433576Y-2350136D01*
X-1378712Y-2368424D02*
X-1360424Y-2350136D01*
X-1305560Y-2350136D01*
X-1287272Y-2368424D01*
X-1287272Y-2386712D01*
X-1305560Y-2405000D01*
X-1360424Y-2405000D01*
X-1378712Y-2423288D01*
X-1378712Y-2459864D01*
X-1287272Y-2459864D01*
D19*
X+529250Y-2521780D02*
X+529250Y-2232220D01*
X-61250Y-2232220D01*
X-61250Y-2521780D01*
X+529250Y-2521780D01*
X+529250Y-2232220D01*
X-61250Y-2232220D01*
X-61250Y-2521780D01*
X+529250Y-2521780D01*
D24*
X+34000Y-2377000D02*
X+34000Y-2377000D01*
D25*
X+87696Y-2395288D02*
X+87696Y-2413576D01*
X+105984Y-2431864D01*
X+179136Y-2431864D01*
X+197424Y-2413576D01*
X+197424Y-2322136D01*
X+270576Y-2358712D02*
X+307152Y-2322136D01*
X+307152Y-2431864D01*
D16*
X-2250000Y-2841440D02*
X-2250000Y-2856680D01*
X-2224600Y-2871920D01*
X-2123000Y-2871920D01*
X-2097600Y-2856680D01*
X-2097600Y-2780480D01*
X-2046800Y-2871920D02*
X-2046800Y-2810960D01*
X-1996000Y-2780480D01*
X-1945200Y-2780480D01*
X-1894400Y-2810960D01*
X-1894400Y-2871920D01*
X-2046800Y-2841440D02*
X-1894400Y-2841440D01*
X-1843600Y-2856680D02*
X-1818200Y-2871920D01*
X-1716600Y-2871920D01*
X-1691200Y-2856680D01*
X-1691200Y-2841440D01*
X-1716600Y-2826200D01*
X-1818200Y-2826200D01*
X-1843600Y-2810960D01*
X-1843600Y-2795720D01*
X-1818200Y-2780480D01*
X-1716600Y-2780480D01*
X-1691200Y-2795720D01*
X-1640400Y-2871920D02*
X-1640400Y-2780480D01*
X-1488000Y-2871920D01*
X-1488000Y-2780480D01*
X-1437200Y-2810960D02*
X-1386400Y-2780480D01*
X-1335600Y-2780480D01*
X-1284800Y-2810960D01*
X-1284800Y-2841440D01*
X-1335600Y-2871920D01*
X-1386400Y-2871920D01*
X-1437200Y-2841440D01*
X-1437200Y-2810960D01*
X-1234000Y-2810960D02*
X-1183200Y-2780480D01*
X-1132400Y-2780480D01*
X-1081600Y-2810960D01*
X-1081600Y-2841440D01*
X-1132400Y-2871920D01*
X-1183200Y-2871920D01*
X-1234000Y-2841440D01*
X-1234000Y-2810960D01*
X-1030800Y-2871920D02*
X-1030800Y-2780480D01*
X-903800Y-2780480D01*
X-878400Y-2795720D01*
X-878400Y-2810960D01*
X-903800Y-2826200D01*
X-1030800Y-2826200D01*
X-903800Y-2826200D02*
X-878400Y-2841440D01*
X-878400Y-2871920D01*
X-624400Y-2856680D02*
X-599000Y-2871920D01*
X-497400Y-2871920D01*
X-472000Y-2856680D01*
X-472000Y-2841440D01*
X-497400Y-2826200D01*
X-599000Y-2826200D01*
X-624400Y-2810960D01*
X-624400Y-2795720D01*
X-599000Y-2780480D01*
X-497400Y-2780480D01*
X-472000Y-2795720D01*
X-421200Y-2871920D02*
X-421200Y-2810960D01*
X-370400Y-2780480D01*
X-319600Y-2780480D01*
X-268800Y-2810960D01*
X-268800Y-2871920D01*
X-421200Y-2841440D02*
X-268800Y-2841440D01*
X-218000Y-2871920D02*
X-218000Y-2780480D01*
X-65600Y-2871920D01*
X-65600Y-2780480D01*
X-14800Y-2871920D02*
X-14800Y-2780480D01*
X+86800Y-2780480D01*
X+137600Y-2810960D01*
X+137600Y-2841440D01*
X+86800Y-2871920D01*
X-14800Y-2871920D01*
X+188400Y-2871920D02*
X+188400Y-2780480D01*
X+340800Y-2780480D02*
X+340800Y-2871920D01*
X+188400Y-2826200D02*
X+340800Y-2826200D01*
X+391600Y-2780480D02*
X+391600Y-2856680D01*
X+417000Y-2871920D01*
X+518600Y-2871920D01*
X+544000Y-2856680D01*
X+544000Y-2780480D01*
X-2224600Y+704280D02*
X-2199200Y+719520D01*
X-2123000Y+719520D01*
X-2097600Y+704280D01*
X-2097600Y+689040D01*
X-2123000Y+673800D01*
X-2199200Y+673800D01*
X-2224600Y+658560D01*
X-2224600Y+628080D01*
X-2097600Y+628080D01*
X-2021400Y+673800D02*
X-1894400Y+673800D01*
X-1843600Y+628080D02*
X-1843600Y+719520D01*
X-1716600Y+719520D01*
X-1691200Y+704280D01*
X-1691200Y+689040D01*
X-1716600Y+673800D01*
X-1691200Y+658560D01*
X-1691200Y+643320D01*
X-1716600Y+628080D01*
X-1843600Y+628080D01*
X-1843600Y+673800D02*
X-1716600Y+673800D01*
X-1615000Y+719520D02*
X-1513400Y+719520D01*
X-1564200Y+719520D02*
X-1564200Y+628080D01*
X-1615000Y+628080D02*
X-1513400Y+628080D01*
X-1437200Y+719520D02*
X-1284800Y+719520D01*
X-1361000Y+719520D02*
X-1361000Y+628080D01*
X-1030800Y+628080D02*
X-1030800Y+719520D01*
X-878400Y+719520D01*
X-1030800Y+673800D02*
X-929200Y+673800D01*
X-827600Y+719520D02*
X-827600Y+643320D01*
X-802200Y+628080D01*
X-700600Y+628080D01*
X-675200Y+643320D01*
X-675200Y+719520D01*
X-624400Y+719520D02*
X-624400Y+628080D01*
X-472000Y+628080D01*
X-421200Y+719520D02*
X-421200Y+628080D01*
X-268800Y+628080D01*
X-14800Y+628080D02*
X-14800Y+689040D01*
X+36000Y+719520D01*
X+86800Y+719520D01*
X+137600Y+689040D01*
X+137600Y+628080D01*
X-14800Y+658560D02*
X+137600Y+658560D01*
X+188400Y+628080D02*
X+188400Y+719520D01*
X+290000Y+719520D01*
X+340800Y+689040D01*
X+340800Y+658560D01*
X+290000Y+628080D01*
X+188400Y+628080D01*
X+391600Y+628080D02*
X+391600Y+719520D01*
X+493200Y+719520D01*
X+544000Y+689040D01*
X+544000Y+658560D01*
X+493200Y+628080D01*
X+391600Y+628080D01*
X+747200Y+628080D02*
X+594800Y+628080D01*
X+594800Y+719520D01*
X+747200Y+719520D01*
X+594800Y+673800D02*
X+696400Y+673800D01*
X+798000Y+628080D02*
X+798000Y+719520D01*
X+925000Y+719520D01*
X+950400Y+704280D01*
X+950400Y+689040D01*
X+925000Y+673800D01*
X+798000Y+673800D01*
X+925000Y+673800D02*
X+950400Y+658560D01*
X+950400Y+628080D01*
M02*
