G04 PROTEUS GERBER X2 FILE*
%TF.GenerationSoftware,Labcenter,Proteus,8.9-SP2-Build28501*%
%TF.CreationDate,2023-03-09T16:47:13+00:00*%
%TF.FileFunction,Legend,Top*%
%TF.FilePolarity,Positive*%
%TF.Part,Single*%
%TF.SameCoordinates,{0f7d483c-582a-42f8-afd4-3f49b78b352a}*%
%FSLAX45Y45*%
%MOMM*%
G01*
%TA.AperFunction,Profile*%
%ADD16C,0.203200*%
%TA.AperFunction,Material*%
%ADD17C,0.203200*%
%ADD18C,0.508000*%
%ADD19C,0.152400*%
%TD.AperFunction*%
D16*
X-2750000Y-3000000D02*
X+1250000Y-3000000D01*
X+1250000Y+750000D01*
X-2750000Y+750000D01*
X-2750000Y-3000000D01*
D17*
X-2032000Y-1266000D02*
X-2032000Y-1139000D01*
X-2032000Y-1647000D02*
X-2032000Y-1520000D01*
X-1905000Y-1393000D02*
X-1907436Y-1367124D01*
X-1914485Y-1343152D01*
X-1925762Y-1321562D01*
X-1940878Y-1302830D01*
X-1959446Y-1287431D01*
X-1981081Y-1275842D01*
X-2005394Y-1268540D01*
X-2032000Y-1266000D01*
X-1905000Y-1393000D02*
X-1907436Y-1419606D01*
X-1914485Y-1443919D01*
X-1925762Y-1465554D01*
X-1940878Y-1484122D01*
X-1959446Y-1499238D01*
X-1981081Y-1510515D01*
X-2005394Y-1517564D01*
X-2032000Y-1520000D01*
X-2032000Y-1647000D02*
X-254000Y-1647000D01*
X-254000Y-1139000D01*
X-2032000Y-1139000D01*
X-2164080Y-1520000D02*
X-2087880Y-1520000D01*
X-2072640Y-1504125D01*
X-2072640Y-1440625D01*
X-2087880Y-1424750D01*
X-2164080Y-1424750D01*
X-2133600Y-1361250D02*
X-2164080Y-1329500D01*
X-2072640Y-1329500D01*
X-2032000Y+0D02*
X-2032000Y+127000D01*
X-2032000Y-381000D02*
X-2032000Y-254000D01*
X-1905000Y-127000D02*
X-1907436Y-101124D01*
X-1914485Y-77152D01*
X-1925762Y-55562D01*
X-1940878Y-36830D01*
X-1959446Y-21431D01*
X-1981081Y-9842D01*
X-2005394Y-2540D01*
X-2032000Y+0D01*
X-1905000Y-127000D02*
X-1907436Y-153606D01*
X-1914485Y-177919D01*
X-1925762Y-199554D01*
X-1940878Y-218122D01*
X-1959446Y-233238D01*
X-1981081Y-244515D01*
X-2005394Y-251564D01*
X-2032000Y-254000D01*
X-2032000Y-381000D02*
X-254000Y-381000D01*
X-254000Y+127000D01*
X-2032000Y+127000D01*
X-2164080Y-254000D02*
X-2087880Y-254000D01*
X-2072640Y-238125D01*
X-2072640Y-174625D01*
X-2087880Y-158750D01*
X-2164080Y-158750D01*
X-2148840Y-111125D02*
X-2164080Y-95250D01*
X-2164080Y-47625D01*
X-2148840Y-31750D01*
X-2133600Y-31750D01*
X-2118360Y-47625D01*
X-2118360Y-95250D01*
X-2103120Y-111125D01*
X-2072640Y-111125D01*
X-2072640Y-31750D01*
X+766000Y+32000D02*
X+893000Y+32000D01*
X+385000Y+32000D02*
X+512000Y+32000D01*
X+639000Y-95000D02*
X+664876Y-92564D01*
X+688848Y-85515D01*
X+710438Y-74238D01*
X+729170Y-59122D01*
X+744569Y-40554D01*
X+756158Y-18919D01*
X+763460Y+5394D01*
X+766000Y+32000D01*
X+639000Y-95000D02*
X+612394Y-92564D01*
X+588081Y-85515D01*
X+566446Y-74238D01*
X+547878Y-59122D01*
X+532762Y-40554D01*
X+521485Y-18919D01*
X+514436Y+5394D01*
X+512000Y+32000D01*
X+385000Y+32000D02*
X+385000Y-1746000D01*
X+893000Y-1746000D01*
X+893000Y+32000D01*
X+512000Y+164080D02*
X+512000Y+87880D01*
X+527875Y+72640D01*
X+591375Y+72640D01*
X+607250Y+87880D01*
X+607250Y+164080D01*
X+654875Y+148840D02*
X+670750Y+164080D01*
X+718375Y+164080D01*
X+734250Y+148840D01*
X+734250Y+133600D01*
X+718375Y+118360D01*
X+734250Y+103120D01*
X+734250Y+87880D01*
X+718375Y+72640D01*
X+670750Y+72640D01*
X+654875Y+87880D01*
X+686625Y+118360D02*
X+718375Y+118360D01*
D18*
X-1958900Y-2214500D02*
X-1959031Y-2211342D01*
X-1960097Y-2205024D01*
X-1962328Y-2198706D01*
X-1965973Y-2192388D01*
X-1971548Y-2186149D01*
X-1977866Y-2181553D01*
X-1984184Y-2178620D01*
X-1990502Y-2176958D01*
X-1996820Y-2176400D01*
X-1997000Y-2176400D01*
X-2035100Y-2214500D02*
X-2034969Y-2211342D01*
X-2033903Y-2205024D01*
X-2031672Y-2198706D01*
X-2028027Y-2192388D01*
X-2022452Y-2186149D01*
X-2016134Y-2181553D01*
X-2009816Y-2178620D01*
X-2003498Y-2176958D01*
X-1997180Y-2176400D01*
X-1997000Y-2176400D01*
X-2035100Y-2214500D02*
X-2034969Y-2217658D01*
X-2033903Y-2223976D01*
X-2031672Y-2230294D01*
X-2028027Y-2236612D01*
X-2022452Y-2242851D01*
X-2016134Y-2247447D01*
X-2009816Y-2250380D01*
X-2003498Y-2252042D01*
X-1997180Y-2252600D01*
X-1997000Y-2252600D01*
X-1958900Y-2214500D02*
X-1959031Y-2217658D01*
X-1960097Y-2223976D01*
X-1962328Y-2230294D01*
X-1965973Y-2236612D01*
X-1971548Y-2242851D01*
X-1977866Y-2247447D01*
X-1984184Y-2250380D01*
X-1990502Y-2252042D01*
X-1996820Y-2252600D01*
X-1997000Y-2252600D01*
D19*
X-727150Y-2285620D02*
X-2066850Y-2285620D01*
X-2066850Y-2329135D01*
X-2066850Y-2524380D02*
X-727150Y-2524380D01*
X-727150Y-2480865D01*
X-727150Y-2329135D02*
X-727150Y-2285620D01*
X-2066850Y-2480865D02*
X-2066850Y-2524380D01*
D17*
X-1524000Y-2623440D02*
X-1524000Y-2638680D01*
X-1508125Y-2653920D01*
X-1444625Y-2653920D01*
X-1428750Y-2638680D01*
X-1428750Y-2562480D01*
X-1381125Y-2577720D02*
X-1365250Y-2562480D01*
X-1317625Y-2562480D01*
X-1301750Y-2577720D01*
X-1301750Y-2592960D01*
X-1317625Y-2608200D01*
X-1365250Y-2608200D01*
X-1381125Y-2623440D01*
X-1381125Y-2653920D01*
X-1301750Y-2653920D01*
D18*
X+72100Y-2186500D02*
X+71969Y-2183342D01*
X+70903Y-2177024D01*
X+68672Y-2170706D01*
X+65027Y-2164388D01*
X+59452Y-2158149D01*
X+53134Y-2153553D01*
X+46816Y-2150620D01*
X+40498Y-2148958D01*
X+34180Y-2148400D01*
X+34000Y-2148400D01*
X-4100Y-2186500D02*
X-3969Y-2183342D01*
X-2903Y-2177024D01*
X-672Y-2170706D01*
X+2973Y-2164388D01*
X+8548Y-2158149D01*
X+14866Y-2153553D01*
X+21184Y-2150620D01*
X+27502Y-2148958D01*
X+33820Y-2148400D01*
X+34000Y-2148400D01*
X-4100Y-2186500D02*
X-3969Y-2189658D01*
X-2903Y-2195976D01*
X-672Y-2202294D01*
X+2973Y-2208612D01*
X+8548Y-2214851D01*
X+14866Y-2219447D01*
X+21184Y-2222380D01*
X+27502Y-2224042D01*
X+33820Y-2224600D01*
X+34000Y-2224600D01*
X+72100Y-2186500D02*
X+71969Y-2189658D01*
X+70903Y-2195976D01*
X+68672Y-2202294D01*
X+65027Y-2208612D01*
X+59452Y-2214851D01*
X+53134Y-2219447D01*
X+46816Y-2222380D01*
X+40498Y-2224042D01*
X+34180Y-2224600D01*
X+34000Y-2224600D01*
D19*
X+503850Y-2257620D02*
X-35850Y-2257620D01*
X-35850Y-2301135D01*
X-35850Y-2496380D02*
X+503850Y-2496380D01*
X+503850Y-2452865D01*
X+503850Y-2301135D02*
X+503850Y-2257620D01*
X-35850Y-2452865D02*
X-35850Y-2496380D01*
D17*
X+107000Y-2595440D02*
X+107000Y-2610680D01*
X+122875Y-2625920D01*
X+186375Y-2625920D01*
X+202250Y-2610680D01*
X+202250Y-2534480D01*
X+265750Y-2564960D02*
X+297500Y-2534480D01*
X+297500Y-2625920D01*
D16*
X-2250000Y-2841440D02*
X-2250000Y-2856680D01*
X-2224600Y-2871920D01*
X-2123000Y-2871920D01*
X-2097600Y-2856680D01*
X-2097600Y-2780480D01*
X-2046800Y-2871920D02*
X-2046800Y-2810960D01*
X-1996000Y-2780480D01*
X-1945200Y-2780480D01*
X-1894400Y-2810960D01*
X-1894400Y-2871920D01*
X-2046800Y-2841440D02*
X-1894400Y-2841440D01*
X-1843600Y-2856680D02*
X-1818200Y-2871920D01*
X-1716600Y-2871920D01*
X-1691200Y-2856680D01*
X-1691200Y-2841440D01*
X-1716600Y-2826200D01*
X-1818200Y-2826200D01*
X-1843600Y-2810960D01*
X-1843600Y-2795720D01*
X-1818200Y-2780480D01*
X-1716600Y-2780480D01*
X-1691200Y-2795720D01*
X-1640400Y-2871920D02*
X-1640400Y-2780480D01*
X-1488000Y-2871920D01*
X-1488000Y-2780480D01*
X-1437200Y-2810960D02*
X-1386400Y-2780480D01*
X-1335600Y-2780480D01*
X-1284800Y-2810960D01*
X-1284800Y-2841440D01*
X-1335600Y-2871920D01*
X-1386400Y-2871920D01*
X-1437200Y-2841440D01*
X-1437200Y-2810960D01*
X-1234000Y-2810960D02*
X-1183200Y-2780480D01*
X-1132400Y-2780480D01*
X-1081600Y-2810960D01*
X-1081600Y-2841440D01*
X-1132400Y-2871920D01*
X-1183200Y-2871920D01*
X-1234000Y-2841440D01*
X-1234000Y-2810960D01*
X-1030800Y-2871920D02*
X-1030800Y-2780480D01*
X-903800Y-2780480D01*
X-878400Y-2795720D01*
X-878400Y-2810960D01*
X-903800Y-2826200D01*
X-1030800Y-2826200D01*
X-903800Y-2826200D02*
X-878400Y-2841440D01*
X-878400Y-2871920D01*
X-624400Y-2856680D02*
X-599000Y-2871920D01*
X-497400Y-2871920D01*
X-472000Y-2856680D01*
X-472000Y-2841440D01*
X-497400Y-2826200D01*
X-599000Y-2826200D01*
X-624400Y-2810960D01*
X-624400Y-2795720D01*
X-599000Y-2780480D01*
X-497400Y-2780480D01*
X-472000Y-2795720D01*
X-421200Y-2871920D02*
X-421200Y-2810960D01*
X-370400Y-2780480D01*
X-319600Y-2780480D01*
X-268800Y-2810960D01*
X-268800Y-2871920D01*
X-421200Y-2841440D02*
X-268800Y-2841440D01*
X-218000Y-2871920D02*
X-218000Y-2780480D01*
X-65600Y-2871920D01*
X-65600Y-2780480D01*
X-14800Y-2871920D02*
X-14800Y-2780480D01*
X+86800Y-2780480D01*
X+137600Y-2810960D01*
X+137600Y-2841440D01*
X+86800Y-2871920D01*
X-14800Y-2871920D01*
X+188400Y-2871920D02*
X+188400Y-2780480D01*
X+340800Y-2780480D02*
X+340800Y-2871920D01*
X+188400Y-2826200D02*
X+340800Y-2826200D01*
X+391600Y-2780480D02*
X+391600Y-2856680D01*
X+417000Y-2871920D01*
X+518600Y-2871920D01*
X+544000Y-2856680D01*
X+544000Y-2780480D01*
X-2224600Y+704280D02*
X-2199200Y+719520D01*
X-2123000Y+719520D01*
X-2097600Y+704280D01*
X-2097600Y+689040D01*
X-2123000Y+673800D01*
X-2199200Y+673800D01*
X-2224600Y+658560D01*
X-2224600Y+628080D01*
X-2097600Y+628080D01*
X-2021400Y+673800D02*
X-1894400Y+673800D01*
X-1843600Y+628080D02*
X-1843600Y+719520D01*
X-1716600Y+719520D01*
X-1691200Y+704280D01*
X-1691200Y+689040D01*
X-1716600Y+673800D01*
X-1691200Y+658560D01*
X-1691200Y+643320D01*
X-1716600Y+628080D01*
X-1843600Y+628080D01*
X-1843600Y+673800D02*
X-1716600Y+673800D01*
X-1615000Y+719520D02*
X-1513400Y+719520D01*
X-1564200Y+719520D02*
X-1564200Y+628080D01*
X-1615000Y+628080D02*
X-1513400Y+628080D01*
X-1437200Y+719520D02*
X-1284800Y+719520D01*
X-1361000Y+719520D02*
X-1361000Y+628080D01*
X-1030800Y+628080D02*
X-1030800Y+719520D01*
X-878400Y+719520D01*
X-1030800Y+673800D02*
X-929200Y+673800D01*
X-827600Y+719520D02*
X-827600Y+643320D01*
X-802200Y+628080D01*
X-700600Y+628080D01*
X-675200Y+643320D01*
X-675200Y+719520D01*
X-624400Y+719520D02*
X-624400Y+628080D01*
X-472000Y+628080D01*
X-421200Y+719520D02*
X-421200Y+628080D01*
X-268800Y+628080D01*
X-14800Y+628080D02*
X-14800Y+689040D01*
X+36000Y+719520D01*
X+86800Y+719520D01*
X+137600Y+689040D01*
X+137600Y+628080D01*
X-14800Y+658560D02*
X+137600Y+658560D01*
X+188400Y+628080D02*
X+188400Y+719520D01*
X+290000Y+719520D01*
X+340800Y+689040D01*
X+340800Y+658560D01*
X+290000Y+628080D01*
X+188400Y+628080D01*
X+391600Y+628080D02*
X+391600Y+719520D01*
X+493200Y+719520D01*
X+544000Y+689040D01*
X+544000Y+658560D01*
X+493200Y+628080D01*
X+391600Y+628080D01*
X+747200Y+628080D02*
X+594800Y+628080D01*
X+594800Y+719520D01*
X+747200Y+719520D01*
X+594800Y+673800D02*
X+696400Y+673800D01*
X+798000Y+628080D02*
X+798000Y+719520D01*
X+925000Y+719520D01*
X+950400Y+704280D01*
X+950400Y+689040D01*
X+925000Y+673800D01*
X+798000Y+673800D01*
X+925000Y+673800D02*
X+950400Y+658560D01*
X+950400Y+628080D01*
M02*
