G04 PROTEUS GERBER X2 FILE*
%TF.GenerationSoftware,Labcenter,Proteus,8.9-SP2-Build28501*%
%TF.CreationDate,2023-03-09T16:47:13+00:00*%
%TF.FileFunction,NonPlated,1,2,NPTH*%
%TF.FilePolarity,Positive*%
%TF.Part,Single*%
%TF.SameCoordinates,{0f7d483c-582a-42f8-afd4-3f49b78b352a}*%
%FSLAX45Y45*%
%MOMM*%
G01*
%TA.AperFunction,Profile*%
%ADD16C,0.203200*%
%TD.AperFunction*%
D16*
X-2750000Y-3000000D02*
X+1250000Y-3000000D01*
X+1250000Y+750000D01*
X-2750000Y+750000D01*
X-2750000Y-3000000D01*
X-2250000Y-2841440D02*
X-2250000Y-2856680D01*
X-2224600Y-2871920D01*
X-2123000Y-2871920D01*
X-2097600Y-2856680D01*
X-2097600Y-2780480D01*
X-2046800Y-2871920D02*
X-2046800Y-2810960D01*
X-1996000Y-2780480D01*
X-1945200Y-2780480D01*
X-1894400Y-2810960D01*
X-1894400Y-2871920D01*
X-2046800Y-2841440D02*
X-1894400Y-2841440D01*
X-1843600Y-2856680D02*
X-1818200Y-2871920D01*
X-1716600Y-2871920D01*
X-1691200Y-2856680D01*
X-1691200Y-2841440D01*
X-1716600Y-2826200D01*
X-1818200Y-2826200D01*
X-1843600Y-2810960D01*
X-1843600Y-2795720D01*
X-1818200Y-2780480D01*
X-1716600Y-2780480D01*
X-1691200Y-2795720D01*
X-1640400Y-2871920D02*
X-1640400Y-2780480D01*
X-1488000Y-2871920D01*
X-1488000Y-2780480D01*
X-1437200Y-2810960D02*
X-1386400Y-2780480D01*
X-1335600Y-2780480D01*
X-1284800Y-2810960D01*
X-1284800Y-2841440D01*
X-1335600Y-2871920D01*
X-1386400Y-2871920D01*
X-1437200Y-2841440D01*
X-1437200Y-2810960D01*
X-1234000Y-2810960D02*
X-1183200Y-2780480D01*
X-1132400Y-2780480D01*
X-1081600Y-2810960D01*
X-1081600Y-2841440D01*
X-1132400Y-2871920D01*
X-1183200Y-2871920D01*
X-1234000Y-2841440D01*
X-1234000Y-2810960D01*
X-1030800Y-2871920D02*
X-1030800Y-2780480D01*
X-903800Y-2780480D01*
X-878400Y-2795720D01*
X-878400Y-2810960D01*
X-903800Y-2826200D01*
X-1030800Y-2826200D01*
X-903800Y-2826200D02*
X-878400Y-2841440D01*
X-878400Y-2871920D01*
X-624400Y-2856680D02*
X-599000Y-2871920D01*
X-497400Y-2871920D01*
X-472000Y-2856680D01*
X-472000Y-2841440D01*
X-497400Y-2826200D01*
X-599000Y-2826200D01*
X-624400Y-2810960D01*
X-624400Y-2795720D01*
X-599000Y-2780480D01*
X-497400Y-2780480D01*
X-472000Y-2795720D01*
X-421200Y-2871920D02*
X-421200Y-2810960D01*
X-370400Y-2780480D01*
X-319600Y-2780480D01*
X-268800Y-2810960D01*
X-268800Y-2871920D01*
X-421200Y-2841440D02*
X-268800Y-2841440D01*
X-218000Y-2871920D02*
X-218000Y-2780480D01*
X-65600Y-2871920D01*
X-65600Y-2780480D01*
X-14800Y-2871920D02*
X-14800Y-2780480D01*
X+86800Y-2780480D01*
X+137600Y-2810960D01*
X+137600Y-2841440D01*
X+86800Y-2871920D01*
X-14800Y-2871920D01*
X+188400Y-2871920D02*
X+188400Y-2780480D01*
X+340800Y-2780480D02*
X+340800Y-2871920D01*
X+188400Y-2826200D02*
X+340800Y-2826200D01*
X+391600Y-2780480D02*
X+391600Y-2856680D01*
X+417000Y-2871920D01*
X+518600Y-2871920D01*
X+544000Y-2856680D01*
X+544000Y-2780480D01*
X-2224600Y+704280D02*
X-2199200Y+719520D01*
X-2123000Y+719520D01*
X-2097600Y+704280D01*
X-2097600Y+689040D01*
X-2123000Y+673800D01*
X-2199200Y+673800D01*
X-2224600Y+658560D01*
X-2224600Y+628080D01*
X-2097600Y+628080D01*
X-2021400Y+673800D02*
X-1894400Y+673800D01*
X-1843600Y+628080D02*
X-1843600Y+719520D01*
X-1716600Y+719520D01*
X-1691200Y+704280D01*
X-1691200Y+689040D01*
X-1716600Y+673800D01*
X-1691200Y+658560D01*
X-1691200Y+643320D01*
X-1716600Y+628080D01*
X-1843600Y+628080D01*
X-1843600Y+673800D02*
X-1716600Y+673800D01*
X-1615000Y+719520D02*
X-1513400Y+719520D01*
X-1564200Y+719520D02*
X-1564200Y+628080D01*
X-1615000Y+628080D02*
X-1513400Y+628080D01*
X-1437200Y+719520D02*
X-1284800Y+719520D01*
X-1361000Y+719520D02*
X-1361000Y+628080D01*
X-1030800Y+628080D02*
X-1030800Y+719520D01*
X-878400Y+719520D01*
X-1030800Y+673800D02*
X-929200Y+673800D01*
X-827600Y+719520D02*
X-827600Y+643320D01*
X-802200Y+628080D01*
X-700600Y+628080D01*
X-675200Y+643320D01*
X-675200Y+719520D01*
X-624400Y+719520D02*
X-624400Y+628080D01*
X-472000Y+628080D01*
X-421200Y+719520D02*
X-421200Y+628080D01*
X-268800Y+628080D01*
X-14800Y+628080D02*
X-14800Y+689040D01*
X+36000Y+719520D01*
X+86800Y+719520D01*
X+137600Y+689040D01*
X+137600Y+628080D01*
X-14800Y+658560D02*
X+137600Y+658560D01*
X+188400Y+628080D02*
X+188400Y+719520D01*
X+290000Y+719520D01*
X+340800Y+689040D01*
X+340800Y+658560D01*
X+290000Y+628080D01*
X+188400Y+628080D01*
X+391600Y+628080D02*
X+391600Y+719520D01*
X+493200Y+719520D01*
X+544000Y+689040D01*
X+544000Y+658560D01*
X+493200Y+628080D01*
X+391600Y+628080D01*
X+747200Y+628080D02*
X+594800Y+628080D01*
X+594800Y+719520D01*
X+747200Y+719520D01*
X+594800Y+673800D02*
X+696400Y+673800D01*
X+798000Y+628080D02*
X+798000Y+719520D01*
X+925000Y+719520D01*
X+950400Y+704280D01*
X+950400Y+689040D01*
X+925000Y+673800D01*
X+798000Y+673800D01*
X+925000Y+673800D02*
X+950400Y+658560D01*
X+950400Y+628080D01*
M02*
